<svg xmlns="http://www.w3.org/2000/svg" viewBox="0 0 120 120" fill="none">
  <!-- bread body -->
  <path d="M20 75c0-22 10-42 40-42s40 20 40 42c0 8-4 16-8 16H28c-4 0-8-8-8-16z" fill="#FBBD40" stroke="#3A1F54" stroke-width="3" stroke-linejoin="round"/>
  <!-- score lines -->
  <path d="M42 38c-2 12-2 24 0 32" stroke="#3A1F54" stroke-width="2" stroke-linecap="round" fill="none"/>
  <path d="M60 33c0 12 0 24 0 38" stroke="#3A1F54" stroke-width="2" stroke-linecap="round" fill="none"/>
  <path d="M78 38c2 12 2 24 0 32" stroke="#3A1F54" stroke-width="2" stroke-linecap="round" fill="none"/>
  <!-- face -->
  <circle cx="48" cy="62" r="2.8" fill="#3A1F54"/>
  <circle cx="68" cy="62" r="2.8" fill="#3A1F54"/>
  <circle cx="49.5" cy="60.5" r="1.1" fill="#FFFDF9"/>
  <circle cx="69.5" cy="60.5" r="1.1" fill="#FFFDF9"/>
  <path d="M52 72q4 4 10 0" stroke="#3A1F54" stroke-width="2.2" stroke-linecap="round" fill="none"/>
  <!-- blush -->
  <ellipse cx="40" cy="70" rx="5" ry="3" fill="#F5A623" opacity="0.3"/>
  <ellipse cx="76" cy="70" rx="5" ry="3" fill="#F5A623" opacity="0.3"/>
  <!-- base/plate -->
  <rect x="22" y="88" width="76" height="10" rx="5" fill="#FBBD40" stroke="#3A1F54" stroke-width="2.8"/>
  <!-- steam -->
  <path d="M40 26c-2-6 2-10 0-14" stroke="#3A1F54" stroke-width="1.5" stroke-linecap="round" fill="none" opacity="0.4"/>
  <path d="M60 22c-2-6 2-10 0-14" stroke="#3A1F54" stroke-width="1.5" stroke-linecap="round" fill="none" opacity="0.4"/>
  <path d="M80 26c-2-6 2-10 0-14" stroke="#3A1F54" stroke-width="1.5" stroke-linecap="round" fill="none" opacity="0.4"/>
</svg>
