<svg xmlns="http://www.w3.org/2000/svg" viewBox="0 0 120 120" fill="none">
  <!-- top shell -->
  <ellipse cx="60" cy="48" rx="32" ry="20" fill="#FBBD40" stroke="#3A1F54" stroke-width="3"/>
  <!-- filling -->
  <rect x="30" y="58" width="60" height="12" rx="6" fill="#FFFDF9" stroke="#3A1F54" stroke-width="2.5"/>
  <!-- ruffle/feet -->
  <path d="M30 58c3 2 6 0 9 2s6 0 9 2 6 0 9 2 6 0 9 2 6 0 6 0" stroke="#3A1F54" stroke-width="1.5" fill="none"/>
  <!-- bottom shell -->
  <ellipse cx="60" cy="78" rx="32" ry="18" fill="#FBBD40" stroke="#3A1F54" stroke-width="3"/>
  <!-- face -->
  <circle cx="48" cy="50" r="2.5" fill="#3A1F54"/>
  <circle cx="68" cy="50" r="2.5" fill="#3A1F54"/>
  <circle cx="49.2" cy="48.8" r="1" fill="#FFFDF9"/>
  <circle cx="69.2" cy="48.8" r="1" fill="#FFFDF9"/>
  <path d="M52 56q4 3 8 0" stroke="#3A1F54" stroke-width="2" stroke-linecap="round" fill="none"/>
  <!-- blush -->
  <ellipse cx="42" cy="54" rx="4" ry="2" fill="#F5A623" opacity="0.3"/>
  <ellipse cx="74" cy="54" rx="4" ry="2" fill="#F5A623" opacity="0.3"/>
  <!-- sparkles -->
  <path d="M88 35l2-5 2 5 5 2-5 2-2 5-2-5-5-2z" fill="#FBBD40" stroke="#3A1F54" stroke-width="0.8"/>
  <path d="M25 40l1.5-3.5 1.5 3.5 3.5 1.5-3.5 1.5-1.5 3.5-1.5-3.5-3.5-1.5z" fill="#FBBD40" stroke="#3A1F54" stroke-width="0.7"/>
</svg>
