<svg xmlns="http://www.w3.org/2000/svg" viewBox="0 0 48 48" fill="none">
  <!-- cup body -->
  <path d="M10 18h22v16c0 4-3 7-7 7H17c-4 0-7-3-7-7V18z" fill="#FBBD40" stroke="#3A1F54" stroke-width="2.5" stroke-linejoin="round"/>
  <!-- handle -->
  <path d="M32 22c4 0 6 2 6 5s-2 5-6 5" stroke="#3A1F54" stroke-width="2.5" stroke-linecap="round" fill="none"/>
  <!-- steam -->
  <path d="M17 13c0-3 2-4 2-6" stroke="#3A1F54" stroke-width="1.8" stroke-linecap="round" fill="none"/>
  <path d="M21 14c0-3 2-4 2-6" stroke="#3A1F54" stroke-width="1.8" stroke-linecap="round" fill="none"/>
  <path d="M25 13c0-3 2-4 2-6" stroke="#3A1F54" stroke-width="1.8" stroke-linecap="round" fill="none"/>
  <!-- face -->
  <circle cx="17" cy="27" r="1.5" fill="#3A1F54"/>
  <circle cx="25" cy="27" r="1.5" fill="#3A1F54"/>
  <path d="M19 31q2 2 4 0" stroke="#3A1F54" stroke-width="1.5" stroke-linecap="round" fill="none"/>
</svg>