<svg xmlns="http://www.w3.org/2000/svg" viewBox="0 0 48 48" fill="none">
  <!-- loaf body -->
  <path d="M6 30c0-8 4-16 18-16s18 8 18 16c0 3-1 6-3 6H9c-2 0-3-3-3-6z" fill="#FBBD40" stroke="#3A1F54" stroke-width="2.5" stroke-linejoin="round"/>
  <!-- score line -->
  <path d="M20 18c-2 5-2 10 0 14" stroke="#3A1F54" stroke-width="1.8" stroke-linecap="round" fill="none"/>
  <path d="M28 18c2 5 2 10 0 14" stroke="#3A1F54" stroke-width="1.8" stroke-linecap="round" fill="none"/>
  <!-- face -->
  <circle cx="21" cy="26" r="1.5" fill="#3A1F54"/>
  <circle cx="27" cy="26" r="1.5" fill="#3A1F54"/>
  <path d="M22 30q2 2 4 0" stroke="#3A1F54" stroke-width="1.5" stroke-linecap="round" fill="none"/>
  <!-- wheat grain -->
  <path d="M36 12l-3 5" stroke="#3A1F54" stroke-width="1.5" stroke-linecap="round"/>
  <path d="M38 14l-3 4" stroke="#3A1F54" stroke-width="1.5" stroke-linecap="round"/>
  <circle cx="36" cy="11" r="1.5" fill="#FBBD40" stroke="#3A1F54" stroke-width="1.2"/>
</svg>